#!OML:ASF H:\Dans Jumps\Project 1\Capture day 1\Session 1\subject.ASF
:FULLY-SPECIFIED
:DEGREES
352
root 0.266826 17.508 3.19572 7.5677 -1.15157 -1.09481
lowerback -5.87981 -0.457574 -0.595847
upperback 3.40127 -0.543428 -0.257902
thorax 6.85644 -0.288245 0.00122837
lowerneck -7.30444 8.30384 3.2522
upperneck -22.36 8.88349 -15.0794
head -4.5768 4.98866 -5.40035
rclavicle 8.94531e-015 9.14409e-015
rhumerus -16.8611 -39.6878 -8.87754
rradius 36.1085
rwrist 13.8284
rhand 4.60588 -41.0824
rfingers 7.12502
rthumb 29.994 -68.6708
lclavicle 8.94531e-015 9.14409e-015
lhumerus -14.716 30.0152 12.2006
lradius 35.6722
lwrist 64.5984
lhand -26.4316 18.2074
lfingers 7.12502
lthumb 0.12887 48.1871
rfemur -17.9712 -5.0668 17.6616
rtibia 31.4219
rfoot -18.3029 -7.01994
rtoes 11.9226
lfemur -15.7697 6.69515 -16.8098
ltibia 27.9286
lfoot -15.0918 12.7561
ltoes 7.22422
353
root 0.268647 17.5062 3.19823 7.54705 -1.165 -1.0807
lowerback -5.9038 -0.437124 -0.595699
upperback 3.37805 -0.513806 -0.29213
thorax 6.84514 -0.272734 -0.0312086
lowerneck -7.3285 8.51027 3.39662
upperneck -21.5428 9.23769 -15.1137
head -4.27638 5.1301 -5.38337
rclavicle 1.73937e-015 2.78299e-015
rhumerus -16.8974 -38.3814 -8.92458
rradius 36.0058
rwrist 13.9535
rhand 6.87073 -40.0858
rfingers 7.12502
rthumb 32.1526 -67.261
lclavicle 1.73937e-015 2.78299e-015
lhumerus -14.7557 28.174 12.2699
lradius 35.75
lwrist 64.5705
lhand -25.3828 18.1015
lfingers 7.12502
lthumb 1.14185 48.0782
rfemur -17.9527 -5.07295 17.6354
rtibia 31.4332
rfoot -18.3053 -7.01305
rtoes 11.8347
lfemur -15.7447 6.71984 -16.8317
ltibia 27.9436
lfoot -15.0907 12.764
ltoes 7.10228
354
root 0.270184 17.5057 3.20115 7.53429 -1.17196 -1.09103
lowerback -5.96495 -0.417203 -0.575011
upperback 3.37781 -0.486249 -0.326907
thorax 6.87959 -0.257348 -0.0764404
lowerneck -7.4857 8.7367 3.57941
upperneck -20.6011 9.63002 -15.1331
head -3.9135 5.27911 -5.35404
rclavicle 6.41081e-015 3.97569e-015
rhumerus -16.8577 -37.1691 -9.05464
rradius 35.8355
rwrist 14.0743
rhand 8.51047 -38.6146
rfingers 7.12502
rthumb 33.7122 -65.4618
lclavicle 6.41081e-015 3.97569e-015
lhumerus -14.796 26.223 12.3208
lradius 35.8502
lwrist 64.4395
lhand -24.1186 18.0417
lfingers 7.12502
lthumb 2.36278 48.0084
rfemur -17.9264 -5.06843 17.6382
rtibia 31.4361
rfoot -18.3029 -7.02489
rtoes 11.8756
lfemur -15.726 6.70498 -16.824
ltibia 27.9649
lfoot -15.1116 12.7822
ltoes 7.07983
355
root 0.271194 17.5054 3.20174 7.54928 -1.15986 -1.09539
lowerback -5.93401 0.637393 -0.106312
upperback 3.03586 0.860413 0.0203397
thorax 6.49467 0.418517 0.179501
lowerneck -6.55184 7.47055 0.826637
upperneck -19.618 8.18939 -14.1064
head -4.10607 4.7135 -4.61868
rclavicle -1.56046e-014 3.97569e-015
rhumerus -20.1759 -34.4566 -5.02444
rradius 36.124
rwrist 13.0267
rhand 9.93229 -37.7203
rfingers 7.12502
rthumb 35.0621 -64.2619
lclavicle -1.56046e-014 3.97569e-015
lhumerus -12.1621 23.5991 15.7098
lradius 35.4664
lwrist 63.3245
lhand -23.1252 17.7201
lfingers 7.12502
lthumb 3.3222 47.674
rfemur -17.9427 -5.07252 17.6439
rtibia 31.4462
rfoot -18.2876 -7.03926
rtoes 11.9056
lfemur -15.7521 6.7175 -16.8242
ltibia 27.9817
lfoot -15.1187 12.7529
ltoes 7.12681
356
root 0.272083 17.5052 3.20397 7.54827 -1.16758 -1.12665
lowerback -6.01453 0.605079 -0.097194
upperback 3.13975 0.819082 -0.0184411
thorax 6.65193 0.399103 0.130938
lowerneck -7.08221 7.72557 1.10003
upperneck -18.6488 8.63349 -14.1372
head -3.67357 4.86261 -4.6021
rclavicle -4.64659e-015 4.17448e-015
rhumerus -19.9168 -32.95 -5.51986
rradius 36.056
rwrist 12.86
rhand 11.2086 -36.6016
rfingers 7.12502
rthumb 36.2717 -62.8509
lclavicle -4.64659e-015 4.17448e-015
lhumerus -12.3222 22.0945 15.5447
lradius 35.5677
lwrist 62.0795
lhand -19.9389 17.5575
lfingers 7.12502
lthumb 6.39884 47.4408
rfemur -17.9411 -5.06505 17.6741
rtibia 31.4548
rfoot -18.2828 -7.04554
rtoes 11.6575
lfemur -15.7518 6.73029 -16.7935
ltibia 27.9973
lfoot -15.1325 12.7581
ltoes 7.08199
357
root 0.27344 17.5048 3.20662 7.53032 -1.16496 -1.10213
lowerback -6.1602 0.469146 -0.170075
upperback 3.53003 0.652772 -0.137635
thorax 7.152 0.31593 0.0313371
lowerneck -8.4828 8.14507 1.53523
upperneck -17.6354 9.30911 -14.149
head -3.0668 5.08698 -4.56008
rclavicle -4.37326e-015 5.96354e-016
rhumerus -19.2635 -32.3367 -6.47623
rradius 35.8707
rwrist 13.3013
rhand 12.3646 -35.8512
rfingers 7.12502
rthumb 37.3655 -61.8202
lclavicle -4.37326e-015 5.96354e-016
lhumerus -12.3895 21.3009 15.153
lradius 35.5573
lwrist 60.0525
lhand -16.9553 17.0835
lfingers 7.12502
lthumb 9.27845 46.8593
rfemur -17.9195 -5.06495 17.6378
rtibia 31.4676
rfoot -18.2887 -7.04121
rtoes 11.7509
lfemur -15.7276 6.71116 -16.8236
ltibia 28.0148
lfoot -15.1644 12.7654
ltoes 7.18597
358
root 0.274836 17.5043 3.20889 7.5182 -1.18005 -1.06333
lowerback -6.22383 0.469483 -0.198935
upperback 3.5855 0.660436 -0.199093
thorax 7.24848 0.31976 -0.0150338
lowerneck -8.8198 8.35429 1.65179
upperneck -16.6851 9.69834 -14.0057
head -2.70061 5.22171 -4.47151
rclavicle -2.48481e-016 -4.17448e-015
rhumerus -19.1398 -30.6608 -6.83565
rradius 35.7934
rwrist 13.5433
rhand 13.4835 -34.4374
rfingers 7.12502
rthumb 38.4223 -60.1204
lclavicle -2.48481e-016 -4.17448e-015
lhumerus -12.3432 19.9505 15.0845
lradius 35.4698
lwrist 56.8781
lhand -15.5503 16.1135
lfingers 7.12502
lthumb 10.6339 45.8244
rfemur -17.9076 -5.0779 17.5857
rtibia 31.4816
rfoot -18.3261 -6.98936
rtoes 11.755
lfemur -15.7223 6.79046 -16.8769
ltibia 28.0314
lfoot -15.1459 12.7345
ltoes 7.03703
359
root 0.276424 17.5034 3.21008 7.50132 -1.16002 -1.071
lowerback -6.28115 0.450786 -0.179415
upperback 3.6543 0.637827 -0.254485
thorax 7.35611 0.310971 -0.0860568
lowerneck -9.12856 8.5695 1.83154
upperneck -15.8396 10.0758 -13.8855
head -2.36787 5.35408 -4.40484
rclavicle -9.79014e-015 6.36111e-015
rhumerus -18.967 -28.611 -7.32638
rradius 35.8511
rwrist 13.5342
rhand 14.1479 -34.1565
rfingers 7.12502
rthumb 39.049 -59.6624
lclavicle -9.79014e-015 6.36111e-015
lhumerus -12.4282 18.1029 14.9773
lradius 35.6164
lwrist 53.8563
lhand -12.8774 15.0369
lfingers 7.12502
lthumb 13.2114 44.5983
rfemur -17.8891 -5.14166 17.5908
rtibia 31.4997
rfoot -18.3304 -6.97525
rtoes 11.5171
lfemur -15.7093 6.80736 -16.8728
ltibia 28.0478
lfoot -15.1734 12.7037
ltoes 7.03261
360
root 0.277343 17.5022 3.21216 7.50197 -1.15929 -1.06299
lowerback -6.33546 0.4389 -0.177416
upperback 3.66493 0.62641 -0.319015
thorax 7.39979 0.307213 -0.155799
lowerneck -9.28693 8.77854 2.03854
upperneck -15.0111 10.436 -13.7724
head -2.064 5.4835 -4.35135
rclavicle -4.77083e-015 8.94531e-015
rhumerus -18.9204 -26.3329 -7.79067
rradius 36.0283
rwrist 13.7073
rhand 14.9064 -33.6474
rfingers 7.12502
rthumb 39.7635 -58.9443
lclavicle -4.77083e-015 8.94531e-015
lhumerus -12.7634 15.4579 14.7804
lradius 36.078
lwrist 50.5496
lhand -10.9959 13.8491
lfingers 7.12502
lthumb 15.0245 43.284
rfemur -17.8974 -5.16552 17.5788
rtibia 31.5188
rfoot -18.3044 -6.98702
rtoes 11.5342
lfemur -15.7123 6.81225 -16.887
ltibia 28.0698
lfoot -15.1819 12.7049
ltoes 7.01491
361
root 0.278235 17.5017 3.21345 7.47883 -1.16961 -1.08696
lowerback -6.35894 0.468559 -0.131039
upperback 3.62218 0.66437 -0.359507
thorax 7.36887 0.329297 -0.219478
lowerneck -9.29032 8.89628 2.09629
upperneck -13.9119 10.7518 -13.2365
head -2.00918 5.56689 -4.59155
rclavicle 8.24956e-015 0
rhumerus -19.022 -23.7659 -8.10412
rradius 36.3079
rwrist 13.7496
rhand 15.6602 -33.0421
rfingers 7.12502
rthumb 40.4727 -58.1238
lclavicle 8.24956e-015 0
lhumerus -12.7186 13.4747 14.8036
lradius 35.9485
lwrist 46.0011
lhand -10.5386 12.459
lfingers 7.12502
lthumb 15.465 41.8604
rfemur -17.8713 -5.1438 17.6006
rtibia 31.5315
rfoot -18.342 -6.97893
rtoes 11.5057
lfemur -15.6951 6.79735 -16.8614
ltibia 28.1012
lfoot -15.198 12.7433
ltoes 6.97764
362
root 0.278414 17.5008 3.21432 7.47129 -1.16199 -1.09392
lowerback -6.40436 0.484348 -0.117772
upperback 3.64346 0.687514 -0.402783
thorax 7.41882 0.342479 -0.268922
lowerneck -9.44348 9.01672 2.17135
upperneck -13.0866 10.9992 -13.004
head -1.6919 5.65149 -4.45829
rclavicle 3.97569e-016 3.97569e-015
rhumerus -19.1119 -21.3343 -8.45399
rradius 36.6824
rwrist 13.8654
rhand 16.5912 -32.3379
rfingers 7.12502
rthumb 41.3473 -57.1429
lclavicle 3.97569e-016 3.97569e-015
lhumerus -12.8135 10.9426 14.7645
lradius 36.1179
lwrist 41.9186
lhand -10.4189 10.8855
lfingers 7.12502
lthumb 15.5802 40.278
rfemur -17.8643 -5.13356 17.6085
rtibia 31.5474
rfoot -18.3606 -7.00194
rtoes 11.5527
lfemur -15.7061 6.82686 -16.8541
ltibia 28.1325
lfoot -15.2114 12.7267
ltoes 6.91784
363
root 0.2789 17.4998 3.21499 7.46017 -1.17135 -1.11601
lowerback -6.42768 0.50491 -0.0924952
upperback 3.66975 0.715373 -0.439226
thorax 7.46145 0.358419 -0.317498
lowerneck -9.73484 9.11811 2.23674
upperneck -12.1643 11.2275 -12.7564
head -1.32589 5.72029 -4.30971
rclavicle -3.97569e-016 -3.97569e-015
rhumerus -19.1115 -19.2196 -8.82742
rradius 36.908
rwrist 14.5109
rhand 17.2737 -30.9487
rfingers 7.12502
rthumb 41.9874 -55.543
lclavicle -3.97569e-016 -3.97569e-015
lhumerus -12.8962 8.27256 14.7298
lradius 36.2883
lwrist 38.1467
lhand -11.4592 9.65272
lfingers 7.12502
lthumb 14.5781 39.1204
rfemur -17.8556 -5.12817 17.6282
rtibia 31.5599
rfoot -18.3665 -6.99331
rtoes 11.7208
lfemur -15.705 6.83364 -16.8316
ltibia 28.1671
lfoot -15.2385 12.7316
ltoes 6.96026
364
root 0.27916 17.4989 3.21487 7.45761 -1.17074 -1.14604
lowerback -6.46468 0.519725 -0.0748893
upperback 3.68966 0.735406 -0.46274
thorax 7.50496 0.369779 -0.349094
lowerneck -9.92219 9.23571 2.31832
upperneck -11.3264 11.4646 -12.5286
head -1.00662 5.80012 -4.1836
rclavicle -9.69075e-015 7.55382e-015
rhumerus -19.1964 -16.9303 -9.17255
rradius 37.3647
rwrist 14.7765
rhand 18.175 -30.1053
rfingers 7.12502
rthumb 42.8314 -54.4106
lclavicle -9.69075e-015 7.55382e-015
lhumerus -13.0979 5.40854 14.6799
lradius 36.6028
lwrist 35.1502
lhand -12.1453 8.05012
lfingers 7.12502
lthumb 13.917 37.5644
rfemur -17.8621 -5.11458 17.6611
rtibia 31.5737
rfoot -18.3575 -7.00349
rtoes 11.8143
lfemur -15.7234 6.84583 -16.7998
ltibia 28.2023
lfoot -15.2334 12.734
ltoes 6.81408
365
root 0.279564 17.4984 3.21681 7.44058 -1.17209 -1.1753
lowerback -6.54223 0.539348 -0.0623807
upperback 3.75244 0.76208 -0.47619
thorax 7.61785 0.383852 -0.365849
lowerneck -10.2055 9.33413 2.34408
upperneck -10.4752 11.6803 -12.2531
head -0.678482 5.86868 -4.02982
rclavicle -1.13804e-014 5.96354e-015
rhumerus -19.3035 -14.6457 -9.48225
rradius 37.8998
rwrist 14.6847
rhand 18.8176 -29.6389
rfingers 7.12502
rthumb 43.4321 -53.7304
lclavicle -1.13804e-014 5.96354e-015
lhumerus -13.3181 2.51215 14.6254
lradius 37.0389
lwrist 32.9031
lhand -13.1848 6.87549
lfingers 7.12502
lthumb 12.915 36.4558
rfemur -17.8415 -5.13018 17.6917
rtibia 31.5891
rfoot -18.3718 -7.00101
rtoes 11.6237
lfemur -15.7088 6.84605 -16.7669
ltibia 28.2351
lfoot -15.2645 12.7406
ltoes 6.85937
366
root 0.278888 17.498 3.21725 7.43783 -1.16442 -1.18469
lowerback -6.57753 0.554385 -0.0997046
upperback 3.77436 0.786561 -0.481516
thorax 7.66163 0.394053 -0.346866
lowerneck -10.4391 9.4199 2.42313
upperneck -9.63936 11.8676 -12.038
head -0.360486 5.92459 -3.9141
rclavicle -4.96962e-017 -7.95139e-016
rhumerus -19.4946 -12.2479 -9.76083
rradius 38.5612
rwrist 14.5044
rhand 19.4041 -28.9506
rfingers 7.12502
rthumb 43.9795 -52.8411
lclavicle -4.96962e-017 -7.95139e-016
lhumerus -13.659 -0.846287 14.5361
lradius 37.8814
lwrist 32.2975
lhand -14.6674 6.27916
lfingers 7.12502
lthumb 11.4855 35.9445
rfemur -17.8495 -5.16106 17.7117
rtibia 31.6068
rfoot -18.3812 -6.99599
rtoes 11.5617
lfemur -15.7182 6.84582 -16.7507
ltibia 28.2667
lfoot -15.2806 12.7261
ltoes 6.94137
